<svg width="100" height="98" viewBox="0 0 100 98" fill="none" xmlns="http://www.w3.org/2000/svg">
<path fill-rule="evenodd" clip-rule="evenodd" d="M37.5288 12.199C30.8933 12.199 24.5296 14.7685 19.8376 19.3423C15.1456 23.916 12.5096 30.1194 12.5096 36.5876C12.5096 43.0559 15.1456 49.2592 19.8376 53.833C24.5296 58.4067 30.8933 60.9763 37.5288 60.9763C44.1643 60.9763 50.5281 58.4067 55.2201 53.833C59.9121 49.2592 62.548 43.0559 62.548 36.5876C62.548 30.1194 59.9121 23.916 55.2201 19.3423C50.5281 14.7685 44.1643 12.199 37.5288 12.199ZM7.09679e-07 36.5876C-0.000753014 30.8301 1.39259 25.1537 4.06669 20.0201C6.7408 14.8864 10.6202 10.4406 15.3893 7.044C20.1584 3.64744 25.6826 1.39612 31.5126 0.473135C37.3426 -0.449847 43.3138 -0.0184286 48.9405 1.7323C54.5672 3.48304 59.6905 6.50364 63.8939 10.5485C68.0972 14.5933 71.2618 19.5481 73.1303 25.0099C74.9987 30.4718 75.5184 36.2864 74.6469 41.9809C73.7754 47.6754 71.5373 53.089 68.1148 57.7813L98.2442 87.1513C99.3836 88.3013 100.014 89.8414 99.9998 91.4401C99.9855 93.0388 99.3277 94.568 98.168 95.6985C97.0083 96.8289 95.4395 97.4702 93.7995 97.484C92.1596 97.4979 90.5796 96.8834 89.3999 95.7727L59.2768 66.4088C53.6622 70.3005 47.0571 72.6106 40.1851 73.0859C33.3131 73.5613 26.4395 72.1835 20.3175 69.1036C14.1955 66.0237 9.06125 61.3605 5.47748 55.6251C1.89371 49.8896 -0.00133885 43.3032 7.09679e-07 36.5876Z" fill="white"/>
</svg>
