<svg width="100" height="98" viewBox="0 0 100 98" fill="none" xmlns="http://www.w3.org/2000/svg">
<path fill-rule="evenodd" clip-rule="evenodd" d="M50 38.9937C55.6832 38.9937 61.1337 36.9396 65.1523 33.2832C69.1709 29.6268 71.4286 24.6677 71.4286 19.4969C71.4286 14.326 69.1709 9.36687 65.1523 5.7105C61.1337 2.05413 55.6832 0 50 0C44.3168 0 38.8663 2.05413 34.8477 5.7105C30.8291 9.36687 28.5714 14.326 28.5714 19.4969C28.5714 24.6677 30.8291 29.6268 34.8477 33.2832C38.8663 36.9396 44.3168 38.9937 50 38.9937ZM0 97.4843C-9.78424e-08 91.5101 1.29329 85.5944 3.80602 80.075C6.31876 74.5556 10.0017 69.5405 14.6447 65.3161C19.2876 61.0917 24.7995 57.7408 30.8658 55.4545C36.9321 53.1683 43.4339 51.9916 50 51.9916C56.5661 51.9916 63.0679 53.1683 69.1342 55.4545C75.2005 57.7408 80.7124 61.0917 85.3553 65.3161C89.9983 69.5405 93.6812 74.5556 96.194 80.075C98.7067 85.5944 100 91.5101 100 97.4843H0Z" fill="white"/>
</svg>
